<?xml version="1.0" encoding="UTF-8"?>
<svg width="70px" height="70px" viewBox="0 0 70 70" version="1.1" xmlns="http://www.w3.org/2000/svg" xmlns:xlink="http://www.w3.org/1999/xlink">
    <title>Logos/Coloured/stencil</title>
    <g id="Home" stroke="none" stroke-width="1" fill="none" fill-rule="evenodd">
        <g id="Dagger" transform="translate(-37.000000, -128.000000)">
            <g id="Stencil" transform="translate(37.000000, 128.000000)">
                <path d="M70,35 C70,54.3299167 54.3305,70 35,70 C15.6700833,70 0,54.3299167 0,35 C0,15.6700833 15.6700833,0 35,0 C54.3305,0 70,15.6700833 70,35" id="Fill-60" fill="#FFB31C"></path>
                <path d="M47.7661333,23.2307833 C47.4563833,23.5341167 47.0078,23.6986167 46.5078833,23.5942 C46.0248833,23.4927 45.6299667,23.1182 45.5057167,22.6398667 C45.3721333,22.1265333 45.5261333,21.6377 45.8528,21.3116167 C46.09955,21.0701167 46.4338,20.9161167 46.80655,20.9161167 C47.1851333,20.9161167 47.5193833,21.0701167 47.7661333,21.3116167 C48.0076333,21.5583667 48.16105,21.8978667 48.16105,22.2706167 C48.16105,22.64395 48.0076333,22.98345 47.7661333,23.2307833 L47.7661333,23.2307833 Z M47.7661333,49.38745 C47.4581333,49.69545 47.0124667,49.8582 46.5154667,49.75845 C46.0324667,49.66045 45.6363833,49.2888667 45.5086333,48.8128667 C45.3703833,48.2972 45.5238,47.8002 45.8528,47.4787833 C46.09955,47.2326167 46.4338,47.0792 46.80655,47.0792 C47.1851333,47.0792 47.5193833,47.2326167 47.7661333,47.4787833 C48.0076333,47.7202833 48.16105,48.0603667 48.16105,48.4331167 C48.16105,48.80645 48.0076333,49.1465333 47.7661333,49.38745 L47.7661333,49.38745 Z M42.7599667,44.17245 C42.4601333,44.4775333 42.06755,44.6507833 41.57405,44.6927833 C41.5244667,44.6968667 41.4824667,44.6572 41.4818833,44.6082 C41.47955,44.4157 41.4743,43.96945 41.4719667,43.7862833 C41.4713833,43.7425333 41.5011333,43.70345 41.5437167,43.6947 C41.6353,43.6760333 41.7099667,43.6462833 41.7671333,43.6025333 C41.83305,43.5471167 41.8878833,43.4817833 41.9316333,43.3937 C41.9701333,43.31145 41.9923,43.2187 42.0028,43.1142833 C42.0086333,43.0098667 42.0144667,42.89495 42.0144667,42.7800333 C42.0144667,42.65345 41.9864667,42.5437833 41.9316333,42.45045 C41.8826333,42.3571167 41.8108833,42.2807 41.7286333,42.2206167 C41.6411333,42.1541167 41.54255,42.1103667 41.4328833,42.0777 C41.3232167,42.0392 41.21355,42.0228667 41.09805,42.0228667 C40.9907167,42.0228667 40.8898,42.0298667 40.7958833,42.0432833 C40.7556333,42.0491167 40.72005,42.0193667 40.72005,41.9785333 L40.72005,41.1367833 C40.72005,41.1006167 40.7492167,41.07145 40.7853833,41.07145 C40.8828,41.0726167 41.0601333,41.0667833 41.1528833,41.04695 C41.2736333,41.0195333 41.38855,40.9810333 41.4929667,40.9262 C41.5973833,40.8655333 41.6848833,40.7943667 41.7508,40.7068667 C41.82255,40.6193667 41.8546333,40.51495 41.8546333,40.38895 C41.8546333,40.1970333 41.8388833,40.0488667 41.7998,39.9392 C41.77355,39.8493667 41.6988833,39.7817 41.5734667,39.7391167 C41.5192167,39.7210333 41.4824667,39.6702833 41.4824667,39.6125333 L41.4824667,38.8367 C41.4824667,38.7842 41.5291333,38.74395 41.5804667,38.7503667 C41.7776333,38.7766167 41.9578833,38.8133667 42.1177167,38.86995 C42.3049667,38.9358667 42.4578,39.0286167 42.5896333,39.1493667 C42.7214667,39.2701167 42.82005,39.4235333 42.8918,39.6102 C42.9629667,39.7962833 42.9956333,40.02145 42.9956333,40.2792833 C42.9956333,40.5808667 42.93555,40.8217833 42.82005,41.0032 C42.7197167,41.1583667 42.5727167,41.29895 42.3808,41.4272833 C42.3434667,41.4517833 42.3574667,41.5066167 42.4006333,41.5153667 C42.4986333,41.5340333 42.58905,41.5731167 42.6724667,41.6337833 C42.7932167,41.7265333 42.8918,41.8367833 42.9734667,41.9738667 C43.0563,42.1103667 43.1216333,42.2532833 43.1653833,42.4067 C43.2091333,42.56595 43.2318833,42.7088667 43.2318833,42.8342833 C43.2318833,43.4047833 43.0778833,43.85395 42.7599667,44.17245 L42.7599667,44.17245 Z M40.85655,44.61345 C40.85655,44.66595 40.8122167,44.7091167 40.7597167,44.7062 C40.4843833,44.6916167 40.2481333,44.6332833 40.0562167,44.53995 C39.8368833,44.4302833 39.6613,44.2821167 39.5189667,44.0960333 C39.3818833,43.9093667 39.2833,43.6900333 39.2226333,43.4380333 C39.1637167,43.2111167 39.1357167,42.9620333 39.1304667,42.6907833 C39.1293,42.6400333 39.1701333,42.5968667 39.2208833,42.5945333 C39.4303,42.5857833 39.9453833,42.5636167 40.1641333,42.5537 C40.2189667,42.5513667 40.26505,42.5951167 40.26505,42.6505333 L40.26505,42.9661167 C40.26505,43.0921167 40.27555,43.2128667 40.3088,43.3172833 C40.3414667,43.42695 40.3963,43.51445 40.47855,43.5803667 C40.5473833,43.6392833 40.6459667,43.6766167 40.77605,43.69645 C40.8221333,43.70345 40.85655,43.7413667 40.85655,43.7880333 L40.85655,44.61345 Z M36.6623833,32.0426167 L34.70705,32.0426167 C34.6399667,32.0426167 34.5921333,31.9778667 34.6113833,31.9142833 L35.0891333,30.3357833 C35.1013833,30.2937833 35.1393,30.2657833 35.18305,30.2652 L36.1181333,30.2512 C36.1624667,30.2500333 36.19455,30.2086167 36.1823,30.1660333 C35.9892167,29.5232 35.4257167,27.6705333 35.2343833,26.7850333 C35.21805,26.7092 35.1118833,26.7068667 35.0908833,26.7815333 C34.6948,28.2258667 33.0579667,33.9711167 33.0579667,33.9711167 C33.0258833,34.0796167 32.9273,34.1542833 32.8141333,34.1542833 L30.7199667,34.1542833 C30.6114667,34.1542833 30.53505,34.04695 30.5706333,33.9437 L33.83205,24.4651167 C33.8688,24.3601167 33.9679667,24.2883667 34.0793833,24.2883667 L36.2464667,24.2883667 C36.3573,24.2883667 36.4558833,24.35895 36.4932167,24.4633667 L39.8287167,33.9431167 C39.8648833,34.0457833 39.7884667,34.1542833 39.6793833,34.1542833 L37.6068,34.1542833 C37.4953833,34.1542833 37.3968,34.0813667 37.36355,33.9740333 L36.80355,32.1476167 C36.7848833,32.0852 36.7271333,32.0426167 36.6623833,32.0426167 L36.6623833,32.0426167 Z M34.6878,39.8003667 C34.6878,39.84295 34.6574667,39.87795 34.6166333,39.8878667 C34.4941333,39.91645 34.40255,39.9607833 34.3424667,40.0156167 C34.2654667,40.0867833 34.2217167,40.1696167 34.19955,40.2740333 C34.1826333,40.35045 34.18905,40.6695333 34.19255,40.87195 C34.1937167,40.9460333 34.1324667,41.0061167 34.0578,41.0037833 L33.1513,40.96995 C33.0754667,40.9670333 33.0183,40.9005333 33.02705,40.8247 C33.0544667,40.6030333 33.1081333,40.17895 33.1524667,40.0051167 C33.2073,39.76945 33.3006333,39.5717 33.4266333,39.40195 C33.5473833,39.2322 33.7118833,39.0945333 33.9148833,38.99595 C34.0951333,38.9032 34.31855,38.8367 34.5857167,38.79645 C34.6393833,38.7877 34.6878,38.8302833 34.6878,38.8845333 L34.6878,39.8003667 Z M35.7133,40.3615333 C35.7133,40.2792833 35.7022167,40.2081167 35.6748,40.1422 C35.6526333,40.0762833 35.62055,40.02145 35.5651333,39.9777 C35.5283833,39.94445 35.4793833,39.9176167 35.4146333,39.8995333 C35.3738,39.8878667 35.3458,39.84995 35.3458,39.80795 C35.3458,39.6166167 35.3463833,39.1161167 35.3463833,38.89795 C35.3463833,38.8413667 35.3953833,38.79645 35.4519667,38.8022833 C35.9238833,38.8536167 36.2733,39.00995 36.5083833,39.27595 C36.7551333,39.5606167 36.8817167,39.9777 36.8817167,40.52545 C36.8817167,40.8492 36.8321333,41.12395 36.73355,41.3485333 C36.6343833,41.5731167 36.50255,41.7761167 36.3438833,41.9517 C36.1793833,42.1325333 35.9927167,42.2976167 35.7792167,42.45045 C35.5878833,42.5881167 35.3924667,42.7427 35.1918,42.9072 C35.1463,42.9451167 35.0891333,42.9661167 35.0296333,42.9661167 C34.7158,42.9672833 33.7008,42.9713667 33.7008,42.9713667 C33.6407167,42.9713667 33.6144667,42.8955333 33.6617167,42.8593667 C33.8098833,42.7456167 33.9773,42.6277833 34.1674667,42.5000333 C34.4188833,42.3297 34.6603833,42.14945 34.8908,41.9517 C35.1212167,41.7597833 35.3183833,41.55095 35.4776333,41.3316167 C35.6421333,41.1122833 35.7191333,40.8766167 35.7191333,40.6298667 C35.7191333,40.5312833 35.7191333,40.4437833 35.7133,40.3615333 L35.7133,40.3615333 Z M33.0101333,44.52595 L33.0101333,43.7367 C33.0101333,43.66495 33.0684667,43.6077833 33.1408,43.6077833 L36.8578,43.6077833 C36.9313,43.6077833 36.9908,43.6643667 36.9908,43.7378667 L36.9908,44.5277 C36.9908,44.5988667 36.9377167,44.6548667 36.8653833,44.6548667 C36.27155,44.65545 33.7404667,44.65545 33.13905,44.65545 C33.0678833,44.65545 33.0101333,44.5971167 33.0101333,44.52595 L33.0101333,44.52595 Z M29.6116333,44.6163667 L28.6654667,44.6163667 C28.5937167,44.6163667 28.5353833,44.5592 28.5353833,44.4868667 L28.5353833,39.3366167 C28.5353833,39.32145 28.5394667,39.3068667 28.54705,39.2928667 C28.5849667,39.2222833 28.6147167,39.1476167 28.6398,39.0723667 C28.6532167,39.02045 28.6672167,38.9685333 28.6783,38.9172 C28.6899667,38.8635333 28.7378,38.8256167 28.7926333,38.8256167 L29.6116333,38.8256167 C29.6833833,38.8256167 29.7417167,38.88395 29.7417167,38.9557 L29.7417167,44.4868667 C29.7417167,44.5586167 29.6833833,44.6163667 29.6116333,44.6163667 L29.6116333,44.6163667 Z M27.7963,40.6847 L27.27305,40.6847 C27.2252167,40.6847 27.1867167,40.6456167 27.1867167,40.5977833 L27.1867167,39.8791167 C27.1867167,39.8412 27.21705,39.8102833 27.25555,39.81145 C27.3308,39.8132 27.4381333,39.8132 27.4381333,39.8132 C27.5151333,39.8132 27.5699667,39.8132 27.6032167,39.8021167 C27.6358833,39.7962833 27.6633,39.77995 27.6796333,39.7583667 C27.7018,39.73095 27.7239667,39.7087833 27.7508,39.6813667 C27.77355,39.65395 27.8173,39.61545 27.8826333,39.5717 L27.8826333,40.5977833 C27.8826333,40.6456167 27.8441333,40.6847 27.7963,40.6847 L27.7963,40.6847 Z M24.1487167,23.2307833 C23.9019667,23.4717 23.5671333,23.6257 23.1943833,23.6257 C22.44305,23.6257 21.8398833,23.0167 21.8398833,22.2706167 C21.8398833,21.8978667 21.9933,21.5583667 22.2342167,21.3116167 C22.4809667,21.0701167 22.8163833,20.9161167 23.1943833,20.9161167 C23.5671333,20.9161167 23.9019667,21.0701167 24.1487167,21.3116167 C24.3954667,21.5583667 24.54305,21.8978667 24.54305,22.2706167 C24.54305,22.64395 24.3954667,22.98345 24.1487167,23.2307833 L24.1487167,23.2307833 Z M24.1487167,49.38745 C23.9019667,49.6342 23.5671333,49.7876167 23.1943833,49.7876167 C22.44305,49.7876167 21.8398833,49.1786167 21.8398833,48.4331167 C21.8398833,48.0603667 21.9933,47.7202833 22.2342167,47.4787833 C22.4809667,47.2326167 22.8163833,47.0792 23.1943833,47.0792 C23.5671333,47.0792 23.9019667,47.2326167 24.1487167,47.4787833 C24.3954667,47.7202833 24.54305,48.0603667 24.54305,48.4331167 C24.54305,48.80645 24.3954667,49.1465333 24.1487167,49.38745 L24.1487167,49.38745 Z M40.8408,38.8588667 L40.8408,39.60145 C40.8408,39.6597833 40.8028833,39.7111167 40.74805,39.7286167 C40.6523833,39.7595333 40.5788833,39.7992 40.5281333,39.8458667 C40.4622167,39.9065333 40.4178833,39.9777 40.3963,40.0652 C40.3741333,40.1532833 40.3636333,40.2518667 40.3688833,40.3615333 C40.3688833,40.4303667 40.3712167,40.5032833 40.3723833,40.58145 C40.3741333,40.6578667 40.3111333,40.7197 40.2347167,40.7162 L39.3848,40.6701167 C39.31305,40.6660333 39.2576333,40.6053667 39.26055,40.5336167 C39.2687167,40.3417 39.2879667,39.9858667 39.32705,39.8295333 C39.3818833,39.6043667 39.4693833,39.4182833 39.5953833,39.2701167 C39.7161333,39.12195 39.8806333,39.0012 40.0836333,38.9137 C40.25805,38.83845 40.46805,38.7830333 40.7148,38.7486167 C40.7807167,38.7392833 40.8408,38.7923667 40.8408,38.8588667 L40.8408,38.8588667 Z M48.24855,18.1470333 L21.7576333,18.1470333 C20.5886333,18.1470333 19.6407167,19.09495 19.6407167,20.26395 L19.6407167,50.4403667 C19.6407167,51.6087833 20.5886333,52.5567 21.7576333,52.5567 L48.2427167,52.5567 C49.4123,52.5567 50.3602167,51.6087833 50.3602167,50.4403667 L50.3602167,20.2587 C50.3602167,19.0926167 49.4146333,18.1470333 48.24855,18.1470333 L48.24855,18.1470333 Z" id="Fill-62" fill="#783200"></path>
            </g>
        </g>
    </g>
</svg>